<?xml version="1.0" standalone="no"?><!DOCTYPE svg PUBLIC "-//W3C//DTD SVG 1.1//EN" "http://www.w3.org/Graphics/SVG/1.1/DTD/svg11.dtd"><svg t="1780302140416" class="icon" viewBox="0 0 1114 1024" version="1.1" xmlns="http://www.w3.org/2000/svg" p-id="7275" xmlns:xlink="http://www.w3.org/1999/xlink" width="217.578125" height="200"><path d="M523.40367212 6.42788515c7.58697353 2.0679458 11.09212004 6.78953283 15.58092968 12.85971261l2.18358183 2.86238712c2.10248637 2.75876262 4.18394899 5.53104208 6.26391191 8.30632374a1705.4023701 1705.4023701 0 0 0 5.81938372 7.60349535l2.24064865 2.96150412c2.50496433 3.11468573 2.50496433 3.11468573 5.86143394 6.29995224 5.15559775 5.23068889 9.70898385 10.84733117 14.33145393 16.54957629 6.52822208 7.99846089 13.12252311 15.87828353 20.0502182 23.53584069 3.11768787 3.52917521 6.0821942 7.15896997 9.04670046 10.81729804 5.4739753 6.74748263 11.09662756 13.34478577 16.8003752 19.89853628l2.53199521 2.91795138c4.78466098 5.51152091 4.78466098 5.51152091 9.58884318 11.00802238 9.5723242 10.91641227 18.31866859 22.2338 26.69708127 34.09483299 3.63429942 5.13607658 7.25808693 10.19706205 11.32789968 14.99523702 24.2206503 28.90168961 31.52529218 71.03853339 41.87403326 106.55705022 3.89410768 13.35680015 7.89934385 26.64752139 12.35361297 39.83011625l1.27350736 3.80550254c1.7165302 5.098531 3.47961534 10.15200962 5.39588195 15.17845448 3.44057008 9.54228829 4.40320955 18.02582226 4.30709469 28.0651981l-0.02252615 3.97069845c-0.13966473 12.99487271-0.96864659 25.91615679-2.01237875 38.86597426-0.30786286 3.80249753-0.59620452 7.60649757-0.88154391 11.41200006a1407.49196346 1407.49196346 0 0 1-1.54983459 18.60851277 1135.38808471 1135.38808471 0 0 0-0.59470204 6.86612082c-1.46122943 17.13827393-5.29676503 32.89190929-10.32621491 49.31233553a2223.35006751 2223.35006751 0 0 0-3.10867851 10.362258c-0.63074507 2.12050789-1.27050227 4.23801357-1.92377639 6.35251432-2.08146266 6.93520476-3.14622126 13.56254384-3.88509551 20.73502781 5.36134144-2.50195935 9.44617346-4.73660361 13.51598893-9.01066027h3.00355433v-3.0035515c2.09948417-2.1175057 2.09948417-2.1175057 5.06849517-4.59844131l3.19277614-2.7392386a242.20200688 242.20200688 0 0 1 7.44280414-6.05216113c10.46137499-8.5631298 14.87809854-16.62917215 19.1176146-29.31617913l3.72590672-10.38928888 1.78561413-5.1240622c2.41035199-6.81656375 5.05347861-13.53100544 7.72363611-20.24845216 2.17607497-5.52053022 4.31610685-10.95996498 5.91399599-16.68473639 1.88923581-4.69605585 3.13270444-5.03845926 7.60199288-6.96824281 0.4054802 1.08278016 0.81096034 2.16706276 1.23145707 3.28288385 7.95941566 21.20207948 16.03897195 42.34559239 24.48646579 63.35844715l1.1413494 2.84136061 3.38800799 8.42196259c8.20420452 20.40764094 16.27625402 40.86934642 23.86623254 61.51276691a176.92128581 176.92128581 0 0 0 6.42760256 15.17244739c7.58847598 16.70726261 4.8987945 39.60184633 5.36734868 57.5630922 0.15318159 5.07150015 0.38295397 10.13398811 0.63375003 15.20248605 0.81246004 21.11047205-2.988535 38.75634545-9.7435245 58.71495345-2.50496433 7.66356432-4.74561292 15.15442581-4.23651384 23.29555644l4.78766595-2.53349495 2.69118119-1.42668888c4.0307674-2.71971738 7.13794343-6.08970382 10.54247327-9.55580232a354.75865333 354.75865333 0 0 1 8.25976881-7.13343872l4.17644213-3.54419175c4.07582262-2.83385094 6.71294204-3.81000717 11.59221253-4.34013559-1.01369905 6.33449279-3.09365917 11.81897996-5.53705205 17.74048565a566.10065651 566.10065651 0 0 0-9.0106574 23.46525706C860.26415349 777.47748275 846.35019405 804.56652732 831.26785155 830.90318084l-1.74205859 3.05611642c-6.00710586 10.44035125-12.67499269 19.87150538-20.46170554 29.05637095-3.18977399 3.76945948-6.21735422 7.62902375-9.23893008 11.53364323-8.93106444 11.18373022-19.2137294 21.04139095-30.09560115 30.31035698a192.30848621 192.30848621 0 0 0-6.17079928 5.59712097C746.08258421 926.88922723 725.84914857 940.56740707 705.11862541 952.54707829l-3.02307553 1.76308509C685.56399509 963.9110209 668.76812734 972.38254062 651.05467255 979.57905605l-3.6538206 1.48826037c-76.06497828 30.45001886-141.77971575 31.18288594-218.06395454-0.98967032-2.688179-1.16087341-5.37185331-2.32775407-8.05402794-3.50214438l-3.65081847-1.5888798a470.93758481 470.93758481 0 0 1-21.4093256-10.04988758l-3.087652-1.54382744c-10.36225793-5.23819577-20.41965526-10.95695998-30.42148827-16.85293449l-4.34764252-2.41035204L355.20470205 942.03464369v-3.00355432l-3.03809207-0.97915848c-5.95304127-2.69568869-10.75572382-6.41258602-15.92183629-10.37727453l-3.18827147-2.42536855A1438.65082353 1438.65082353 0 0 1 323.66739553 918.00621737l-2.72572177-2.11750285c-10.07091417-7.88132234-10.07091417-7.88132234-13.79381871-11.39848321v-3.00355435l-4.50532867-1.50177716c-4.0352721-3.6598306-4.0352721-3.6598306-7.50888306-7.50888027v-3.00355431l-2.62210289-1.05124458c-4.23951605-2.44639511-6.48467216-5.32229621-9.48521867-9.17885555l-3.05761615-3.87909109c-2.70319834-3.70338058-5.01593302-7.48485433-7.3617086-11.42100947a462.60873484 462.60873484 0 0 0-5.53705207-7.60199285C260.62131859 847.53836014 254.5556435 838.52620025 248.57857076 829.40140648a12930.89633938 12930.89633938 0 0 0-3.49613439-5.23219139c-5.877953-8.86498547-11.30837839-17.66689986-15.4682987-27.49001728a339.14919025 339.14919025 0 0 0-5.1991505-11.52162891c-7.45181627-15.9128241-13.57606066-31.77759079-18.45683089-48.65755899a694.43196475 694.43196475 0 0 0-2.6551409-8.87850234c-3.30090535-11.04556516-5.76531916-22.0836234-7.86780827-33.40401611-0.69081681-4.3476424-0.69081681-4.3476424-2.42236644-7.48485435-0.20123902-4.0127459-0.06457645-7.99395619 0-12.01421173 6.4981862 2.06344111 9.69696955 4.87777076 14.07915535 10.04388324 4.13739411 4.75612479 8.25977163 9.47771183 12.67199053 13.9845402l2.37581144 2.44038791c2.63561693 2.25867293 5.26222448 3.6448113 8.41745513 5.0684952 2.02739805-5.66770462 1.01970619-10.02285673-0.16519319-15.8392355l-1.17739525-5.95604629-0.63675223-3.14772378c-3.29339568-16.33181834-6.28793787-32.66664156-8.34537179-49.20720852-0.18021252-1.40566234-0.36042774-2.809825-0.54364239-4.25753484-1.82615907-15.46229151-1.24947859-28.68393161 2.60858598-43.79931216l1.2044234-4.87626829c3.57873233-14.23684161 7.60649757-28.3400229 11.71235606-42.43269511a706.34705947 706.34705947 0 0 0 8.39042419-31.43969203c2.12651504-8.66224678 4.30709471-17.29145555 6.9457166-25.81253232l1.48375564-4.88077578c3.41503888-8.62019657 9.34104928-16.06900784 14.56573099-23.6529792 1.99736215-2.97652067 3.99021966-5.95754597 5.97707001-8.94007384l3.0891545-4.62247a7820.0896158 7820.0896158 0 0 0 34.57990326-52.2332891l1.96732911-2.99904687c1.27650947-1.94029539 2.54851427-3.88209328 3.82051908-5.82388838 1.23145706-1.87872117 2.46741877-3.75594259 3.7033805-5.6316616a479.1237706 479.1237706 0 0 0 9.15633216-14.45159467l1.82916406-2.97051626a331.02908332 331.02908332 0 0 0 3.38800797-5.64217339c1.55584174-2.51697868 1.55584174-2.51697868 4.57440982-6.31496879h6.00710589l0.34240622 3.56371581A5693.3698565 5693.3698565 0 0 0 349.19759617 386.37733788l0.55866176 5.4063967c0.50759936 4.80118 1.04823956 9.59935504 1.60089416 14.39903258l0.44452538 4.2530301c1.2164377 10.14149778 4.09834882 19.04853349 7.90835608 28.50371909l2.01838588 5.18563363c4.87777076 12.14036245 4.87777076 12.14036245 11.49760303 23.34811855 3.85055491 1.07226832 3.85055491 1.07226832 7.50888025 1.5017772l3.66133308-7.3226606a10078.84256132 10078.84256132 0 0 1 3.23031895-6.45463627c2.77828665-5.54756109 5.54455893-11.09962975 8.27929564-16.66971984 4.93183541-10.01684959 9.94176129-19.8354651 15.85575454-29.32518853 1.89223797-3.10717605 3.54569427-6.26090695 5.20365795-9.49723588 8.7328304-15.84374294 20.96780237-30.00549345 32.73422026-43.67015646 5.73077857-6.6663871 11.15970148-13.53701263 16.5510788-20.47822454 4.44075226-5.69924302 9.0151649-11.25431378 13.69620138-16.75982749 6.82257093-8.11409972 12.97534868-16.5796122 19.05754567-25.24786619a382.75627279 382.75627279 0 0 1 8.16215434-11.17021335l2.08146262-2.78579629a383.65133359 383.65133359 0 0 1 4.70506519-6.11223005c14.05362414-18.70762979 18.59199378-39.59283419 22.31039078-62.15402389 0.86652461-5.05497829 1.75257324-10.10695721 2.63862195-15.15893049l0.6457644-3.70938771a388.69129536 388.69129536 0 0 1 7.25057724-32.79879949c4.40921667-17.57679221 1.88022365-34.23599741-1.99436002-51.67462733l-1.15036154-5.45595377c-2.38632333-11.12215591-5.18563365-22.09113307-8.16365683-33.06911956-2.64763125-9.90121353-4.94534945-19.88652468-7.24306757-29.87333848-0.82147222-3.56071077-1.66096594-7.11841941-2.49895436-10.67312581l-1.57686549-6.83458243-0.76140046-3.19878615c-1.11582102-4.93634006-1.63843693-7.55393547-0.00600711-12.45272998z" fill="#F6A620" p-id="7276"></path><path d="M523.40367212 6.42788515c7.58697353 2.0679458 11.09212004 6.78953283 15.58092968 12.85971261l2.18358183 2.86238712c2.10248637 2.75876262 4.18394899 5.53104208 6.26391191 8.30632374a1705.4023701 1705.4023701 0 0 0 5.81938372 7.60349535l2.24064865 2.96150412c2.50496433 3.11468573 2.50496433 3.11468573 5.86143394 6.29995224 5.15559775 5.23068889 9.70898385 10.84733117 14.33145393 16.54957629 6.52822208 7.99846089 13.12252311 15.87828353 20.0502182 23.53584069 3.11768787 3.52917521 6.0821942 7.15896997 9.04670046 10.81729804 5.4739753 6.74748263 11.09662756 13.34478577 16.8003752 19.89853628l2.53199521 2.91795138c4.78466098 5.51152091 4.78466098 5.51152091 9.58884318 11.00802238 9.5723242 10.91641227 18.31866859 22.2338 26.69708127 34.09483299 3.63429942 5.13607658 7.25808693 10.19706205 11.32789968 14.99523702 24.2206503 28.90168961 31.52529218 71.03853339 41.87403326 106.55705022 3.89410768 13.35680015 7.89934385 26.64752139 12.35361297 39.83011625l1.27350736 3.80550254c1.7165302 5.098531 3.47961534 10.15200962 5.39588195 15.17845448 3.44057008 9.54228829 4.40320955 18.02582226 4.30709469 28.0651981l-0.02252615 3.97069845c-0.13966473 12.99487271-0.96864659 25.91615679-2.01237875 38.86597426-0.30786286 3.80249753-0.59620452 7.60649757-0.88154391 11.41200006a1407.49196346 1407.49196346 0 0 1-1.54983459 18.60851277 1135.38808471 1135.38808471 0 0 0-0.59470204 6.86612082c-1.46122943 17.13827393-5.29676503 32.89190929-10.32621491 49.31233553a2223.35006751 2223.35006751 0 0 0-3.10867851 10.362258c-0.63074507 2.12050789-1.27050227 4.23801357-1.92377639 6.35251432-2.08146266 6.93520476-3.14622126 13.56254384-3.88509551 20.73502781 5.36134144-2.50195935 9.44617346-4.73660361 13.51598893-9.01066027h3.00355433v-3.0035515c2.09948417-2.1175057 2.09948417-2.1175057 5.06849517-4.59844131l3.19277614-2.7392386a242.20200688 242.20200688 0 0 1 7.44280414-6.05216113c10.46137499-8.5631298 14.87809854-16.62917215 19.1176146-29.31617913l3.72590672-10.38928888 1.78561413-5.1240622c2.41035199-6.81656375 5.05347861-13.53100544 7.72363611-20.24845216 2.17607497-5.52053022 4.31610685-10.95996498 5.91399599-16.68473639 1.88923581-4.69605585 3.13270444-5.03845926 7.60199288-6.96824281 0.4054802 1.08278016 0.81096034 2.16706276 1.23145707 3.28288385 7.95941566 21.20207948 16.03897195 42.34559239 24.48646579 63.35844715l1.1413494 2.84136061 3.38800799 8.42196259c8.20420452 20.40764094 16.27625402 40.86934642 23.86623254 61.51276691a176.92128581 176.92128581 0 0 0 6.42760256 15.17244739c7.58847598 16.70726261 4.8987945 39.60184633 5.36734868 57.5630922 0.15318159 5.07150015 0.38295397 10.13398811 0.63375003 15.20248605 0.81246004 21.11047205-2.988535 38.75634545-9.7435245 58.71495345-2.50496433 7.66356432-4.74561292 15.15442581-4.23651384 23.29555644l4.78766595-2.53349495 2.69118119-1.42668888c4.0307674-2.71971738 7.13794343-6.08970382 10.54247327-9.55580232a354.75865333 354.75865333 0 0 1 8.25976881-7.13343872l4.17644213-3.54419175c4.07582262-2.83385094 6.71294204-3.81000717 11.59221253-4.34013559-1.01369905 6.33449279-3.09365917 11.81897996-5.53705205 17.74048565a566.10065651 566.10065651 0 0 0-9.0106574 23.46525706C860.26415349 777.47748275 846.35019405 804.56652732 831.26785155 830.90318084l-1.74205859 3.05611642c-6.00710586 10.44035125-12.67499269 19.87150538-20.46170554 29.05637095-3.18977399 3.76945948-6.21735422 7.62902375-9.23893008 11.53364323-8.91154038 11.16120398-19.17618388 20.97981676-30.01300316 30.25178772-4.98139252 4.29808533-9.82462275 8.75085195-14.6888767 13.18109237-4.78015348 4.19446086-8.61869405 7.18149616-14.53719477 9.66242896-5.51152091 2.41035199-9.50624524 5.18413117-14.25486318 8.85297111C689.44008122 963.84043734 642.15514651 985.68677869 596.9907197 994.59681939c-3.32643374-0.68781463-3.32643374-0.68781463-6.00710585-1.50177718l2.89842732-1.11581821C638.95035319 975.97479257 638.95035319 975.97479257 678.08665038 949.54352394c2.09497947-1.75407575 4.18995617-3.50514651 6.28944036-5.25621731 4.91080886-4.35064742 9.21940607-9.01666737 13.46192434-14.01457889 3.11168074-3.65081839 6.31497149-7.20852706 9.5332761-10.76473317 4.78616066-5.30877937 9.55880729-10.62506844 14.23233698-16.03296479 2.46892128-2.83685594 4.96937811-5.63917124 7.4848543-8.43547943l4.84623244-5.47247283c0.76740762-0.84399841 1.53631772-1.68649434 2.32775401-2.55302176 10.48089903-11.95113779 14.66484798-27.30830514 20.01117016-42.03171953 0.71184332-1.95531194 1.42668885-3.90912421 2.1400319-5.8644362 7.90835605-21.70817911 15.61547305-43.49144654 23.29555645-65.2822264l-3.1357094 2.31424003c-8.83645211 6.48316967-17.75700467 12.72004791-26.99292981 18.61752215l-3.38800802 2.18508432c-8.06303728 5.18112901-8.06303728 5.18112901-11.53664823 6.91868569 3.90912421-12.24548662 8.48954122-24.21915067 13.06095166-36.22735518 1.41166954-3.71239269 2.8158322-7.42628508 4.21999204-11.14318248 4.14039906-10.95996498 8.30332154-21.90641312 12.63744993-32.79278947l1.91476418-4.88077583c1.13534221-2.88641578 2.29171102-5.76531916 3.47360815-8.6322109 5.85542678-15.02076827 3.87157866-29.63305415 2.04992429-45.33112239l-0.57067329-5.06999765c-2.34877777-20.10578242-5.31628906-40.1319719-8.27929563-60.15515916l-0.59319954-4.04728929c-0.37093961-2.51998087-0.7448814-5.03695955-1.12483038-7.55393546-0.83498905-5.70224521-1.48225314-11.15819898-1.25849078-16.94153961h-3.0035515l-1.00919436 2.32775401c-5.39738451 9.95677781-13.10299906 18.77520837-20.01567761 27.70777531l-2.66114812 3.44807977C725.52025918 617.3956174 716.37894639 629.00434898 702.11507391 637.17401295c-2.29020848 1.37412678-4.57741479 2.75275545-6.86311865 4.13589439-5.19614551 3.13721194-10.40731039 6.24438795-15.62898712 9.33954677a436.9298573 436.9298573 0 0 0-22.35394355 14.30442027c-2.01538367 1.33958343-4.1088607 2.56353362-6.21435204 3.75744514l-3.00355152-1.50177441a219.12270595 219.12270595 0 0 1-3.14472155-13.14054459l-0.87403432-4.03827708A3094.11011298 3094.11011298 0 0 1 641.29312656 637.17401295c-0.61122384-2.84586524-1.22244486-5.69173335-1.83667371-8.53609612-1.39515051-6.47866497-2.77828665-12.96033213-4.15091092-19.44500148-0.51961372-2.40284239-1.05875143-4.79967751-1.61440826-7.19351052-4.51734306-19.46903021-0.79894595-36.80403566 3.37899588-55.96370052l1.65345625-7.80773657c1.09179231-5.16160499 2.19109145-10.32171025 3.29339569-15.48181268 2.40734703-11.30387088 4.62547219-22.64678983 6.84509711-33.98820629l0.82597688-4.17794177 0.69682401-3.56521832C651.05467255 477.98570592 651.05467255 477.98570592 652.55644974 473.48037723c4.13889655-56.86476576 7.22204388-117.09651565-17.63085675-169.51002005-6.38104766-13.47694369-11.10864189-27.52305819-15.97890025-41.59920853-2.33976843-6.73697076-4.7531226-13.4469078-7.16047246-20.15834734C607.75395039 230.94347099 607.75395039 230.94347099 606.00137713 225.68725368c-3.36397931 8.62920876-4.45877378 17.44012965-5.76682161 26.55140937l-1.55133431 10.42382941c-0.80194818 5.44994662-1.59939168 10.89989321-2.39233046 16.35134235a4710.95272458 4710.95272458 0 0 1-2.3442731 15.83773579l-0.6983265 4.90179952c-1.69850865 11.30537338-4.45727131 21.15101984-9.86216545 31.30452917-0.57067615 1.07977795-1.14134942 2.15805345-1.72704208 3.27086943l-1.84418343 3.42855572-1.9628216 3.67484717c-1.39214551 2.60408135-2.7887985 5.20666019-4.18995615 7.8077365a2458.69346049 2458.69346049 0 0 0-6.77150853 12.72154762c-1.54232493 2.88341083-3.08464979 5.76682162-4.6284772 8.6472303l-2.12050791 4.01575087C551.11444959 391.33320196 539.97126993 405.05493456 526.40722362 418.29008866l-3.87157866 3.84905529c-6.66788681 6.58528885-13.44990998 12.96333434-20.56532719 19.06204753-18.11743244 15.66052554-31.25647457 36.46313196-45.12237655 55.79850736-3.32042657 4.61796255-6.66788681 9.21940607-10.01234492 13.82084681-3.24533827 4.47529282-6.4666506 8.965605-9.68645768 13.46042464a1182.0587934 1182.0587934 0 0 1-6.98326219 9.56331196c-1.46122943 2.02890057-2.92095641 4.0593008-4.37767828 6.08970387l-1.96882877 2.62360256c-12.94531283 18.29764494-17.49719923 43.96150316-24.02992601 65.14406136l-2.93747539 9.48071404c-2.37280645 7.66356432-4.74110825 15.32863395-7.10640506 22.99520321-4.61345788-2.19259403-7.34368711-4.11637038-10.60554721-8.07204945-3.26185728-3.86707398-6.55675549-7.67407899-10.00183023-11.37445451l-2.18057965-2.34277063c-2.08746981-2.23614393-4.18094681-4.46928562-6.27442099-6.70393268-8.36940045-9.37709232-13.03542046-17.97476272-16.81839675-29.88234777l-1.38163365-4.19746583c-1.44020289-4.38518798-2.85337493-8.77938535-4.26654698-13.1720802-0.97765601-2.99153999-1.95681446-5.98307719-2.93747535-8.97311467-2.38782582-7.29713217-4.7531226-14.60027156-7.10640509-21.9079156-4.81169188 13.99655738-9.15482965 27.99311477-12.85821016 42.33207558-2.41485669 9.3155209-4.84022529 18.45082649-8.23724541 27.45998426-4.58041701 13.44090062-5.46346346 27.67173507-6.9682428 41.7148445-0.31987722 2.85487745-0.64275939 5.70975489-0.96564163 8.56463232-0.59169983 5.24120076-1.17288779 10.4854037-1.74356395 15.72960658a707.61005207 707.61005207 0 0 1-1.55283673 13.10750379c-3.10267134 25.12772551 2.92846325 41.43852007 13.27270253 64.25050583 1.99736215 4.51584057 3.98270998 9.03618857 5.96655808 13.5595388a1050.56324233 1050.56324233 0 0 0 3.71989959 8.35438402A218.14204785 218.14204785 0 0 1 328.17272702 793.35876845c-11.7483963-7.68609334-23.14838202-15.82872359-34.54086084-24.02842351 10.12197378 31.32555569 22.43654151 60.88652375 37.4918503 90.1621552a430.01717876 430.01717876 0 0 1 8.84546427 18.26460684C365.63604395 931.32997946 420.22111297 967.69399442 473.84504513 988.58971349a434.41588356 434.41588356 0 0 0 13.51598888 4.50532872c-4.62396974 1.47624592-7.42478258 1.49426749-12.05475946 0.09911979l-3.55470362-1.05574926-3.81901935-1.20142117-4.02325775-1.24647641c-33.910113-10.7076664-66.93417731-24.46694174-96.92315462-43.72722608-4.65400565-2.98403031-8.92655975-5.4919968-14.05662629-7.62451906-6.36753366-2.8128272-11.39397852-6.51620772-16.87246139-10.75872599l-3.14772094-2.40434483A1315.50665138 1315.50665138 0 0 1 323.66739553 918.00621737l-2.71370742-2.11149567c-10.09494284-7.89934385-10.09494284-7.89934385-13.80583306-11.40449039v-3.00355435l-4.50532867-1.50177716c-4.0352721-3.6598306-4.0352721-3.6598306-7.50888306-7.50888027v-3.00355431l-2.62210289-1.05124458c-4.23951605-2.44639511-6.48467216-5.32229621-9.48521867-9.17885555l-3.05761615-3.87909109c-2.70319834-3.70338058-5.01593302-7.48485433-7.3617086-11.42100947a462.60873484 462.60873484 0 0 0-5.53705207-7.60199285C260.62131859 847.53836014 254.5556435 838.52620025 248.57857076 829.40140648a12930.89633938 12930.89633938 0 0 0-3.49613439-5.23219139c-5.877953-8.86498547-11.30837839-17.66689986-15.4682987-27.49001728a339.14919025 339.14919025 0 0 0-5.1991505-11.52162891c-7.45181627-15.9128241-13.57606066-31.77759079-18.45683089-48.65755899a694.43196475 694.43196475 0 0 0-2.6551409-8.87850234c-3.30090535-11.04556516-5.76531916-22.0836234-7.86780827-33.40401611-0.69081681-4.3476424-0.69081681-4.3476424-2.42236644-7.48485435-0.20123902-4.0127459-0.06457645-7.99395619 0-12.01421173 6.4981862 2.06344111 9.69696955 4.87777076 14.07915535 10.04388324 4.13739411 4.75612479 8.25977163 9.47771183 12.67199053 13.9845402l2.37581144 2.44038791c2.63561693 2.25867293 5.26222448 3.6448113 8.41745513 5.0684952 2.02739805-5.66770462 1.01970619-10.02285673-0.16519319-15.8392355l-1.17739525-5.95604629-0.63675223-3.14772378c-3.29339568-16.33181834-6.28793787-32.66664156-8.34537179-49.20720852-0.18021252-1.40566234-0.36042774-2.809825-0.54364239-4.25753484-1.82615907-15.46229151-1.24947859-28.68393161 2.60858598-43.79931216l1.2044234-4.87626829c3.57873233-14.23684161 7.60649757-28.3400229 11.71235606-42.43269511a706.34705947 706.34705947 0 0 0 8.39042419-31.43969203c2.12651504-8.66224678 4.30709471-17.29145555 6.9457166-25.81253232l1.48375564-4.88077578c3.41503888-8.62019657 9.34104928-16.06900784 14.56573099-23.6529792 1.99736215-2.97652067 3.99021966-5.95754597 5.97707001-8.94007384l3.0891545-4.62247a7820.0896158 7820.0896158 0 0 0 34.57990326-52.2332891l1.96732911-2.99904687c1.27650947-1.94029539 2.54851427-3.88209328 3.82051908-5.82388838 1.23145706-1.87872117 2.46741877-3.75594259 3.7033805-5.6316616a479.1237706 479.1237706 0 0 0 9.15633216-14.45159467l1.82916406-2.97051626a331.02908332 331.02908332 0 0 0 3.38800797-5.64217339c1.55584174-2.51697868 1.55584174-2.51697868 4.57440982-6.31496879h6.00710589l0.34240622 3.56371581A5693.3698565 5693.3698565 0 0 0 349.19759617 386.37733788l0.55866176 5.4063967c0.50759936 4.80118 1.04823956 9.59935504 1.60089416 14.39903258l0.44452538 4.2530301c1.2164377 10.14149778 4.09834882 19.04853349 7.90835608 28.50371909l2.01838588 5.18563363c4.87777076 12.14036245 4.87777076 12.14036245 11.49760303 23.34811855 3.85055491 1.07226832 3.85055491 1.07226832 7.50888025 1.5017772l3.66133308-7.3226606a10078.84256132 10078.84256132 0 0 1 3.23031895-6.45463627c2.77828665-5.54756109 5.54455893-11.09962975 8.27929564-16.66971984 4.93183541-10.01684959 9.94176129-19.8354651 15.85575454-29.32518853 1.89223797-3.10717605 3.54569427-6.26090695 5.20365795-9.49723588 8.7328304-15.84374294 20.96780237-30.00549345 32.73422026-43.67015646 5.73077857-6.6663871 11.15970148-13.53701263 16.5510788-20.47822454 4.44075226-5.69924302 9.0151649-11.25431378 13.69620138-16.75982749 6.82257093-8.11409972 12.97534868-16.5796122 19.05754567-25.24786619a382.75627279 382.75627279 0 0 1 8.16215434-11.17021335l2.08146262-2.78579629a383.65133359 383.65133359 0 0 1 4.70506519-6.11223005c14.05362414-18.70762979 18.59199378-39.59283419 22.31039078-62.15402389 0.86652461-5.05497829 1.75257324-10.10695721 2.63862195-15.15893049l0.6457644-3.70938771a388.69129536 388.69129536 0 0 1 7.25057724-32.79879949c4.40921667-17.57679221 1.88022365-34.23599741-1.99436002-51.67462733l-1.15036154-5.45595377c-2.38632333-11.12215591-5.18563365-22.09113307-8.16365683-33.06911956-2.64763125-9.90121353-4.94534945-19.88652468-7.24306757-29.87333848-0.82147222-3.56071077-1.66096594-7.11841941-2.49895436-10.67312581l-1.57686549-6.83458243-0.76140046-3.19878615c-1.11582102-4.93634006-1.63843693-7.55393547-0.00600711-12.45272998z" fill="#D44C0A" p-id="7277"></path><path d="M553.43920143 515.53011835c2.01238151 5.54756109 0.94011323 8.9250573-0.84550086 14.45459681-3.22281205 10.74220697-5.95454379 21.56250721-8.54060365 32.4759173l-1.22995455 5.0069237c-5.18563365 22.15120206-2.14754156 41.8995645 4.2335089 63.51162878l1.03622522 3.5366849c1.20142117 3.91963607 2.50646401 7.79271721 3.84454778 11.66880333l1.65796092 4.96787564c6.17981148 17.02263794 15.79868777 31.15435258 26.03179289 45.99941587 14.73242666 21.39731125 26.41024212 41.97165061 34.35313869 66.82905316l1.08127766 3.23482641c3.36698431 10.28416468 5.98307719 20.68697041 6.89615948 31.49225411l0.34090375 3.85505966L622.52092037 805.37298018h3.00355157c7.68008613-13.03542046 14.64982868-25.6203083 19.56364246-39.97879031C646.54934387 761.8214619 646.54934387 761.8214619 649.55289539 760.31968755c4.26955195 8.78839469 7.42328009 17.64737582 10.19706488 27.00794633a627.2920437 627.2920437 0 0 0 4.47979751 14.31493489l1.43269601 4.43624758c0.94612039 2.92395856 1.89674269 5.84791713 2.85337496 8.77037596l1.32907156 4.12838195 1.19391153 3.67484713c5.18112901 18.65957234 2.54851427 39.47119097 1.32156467 58.5602722l-0.31837748 5.93652224c-1.00618938 15.76865185-4.63748658 25.11120364-13.66616558 37.8973305l-2.20460833 3.1612406a678.04758157 678.04758157 0 0 1-17.18332638 23.43522118 142.35339404 142.35339404 0 0 0-5.10453821 7.15746747C619.57743777 980.11218665 593.36393001 991.25837126 569.95874189 999.10214808c61.44818768-9.87718483 120.23673259-36.06966893 169.70074446-73.58704763l3.00355145 1.50177716c-51.53646511 41.93560753-140.35903408 85.74543159-208.7469311 81.09593069-38.96809627-4.91982105-76.73627389-15.82872359-112.63323723-31.53730658l-3.65081847-1.5888798a470.93758481 470.93758481 0 0 1-21.41082807-10.04988758l-3.08614953-1.54382744c-10.36225793-5.23819577-20.41965526-10.95695998-30.42148827-16.85293449l-4.34764252-2.41035204L355.20470205 942.03464369v-3.00355432c5.58510667 1.97934062 10.44785813 4.67052464 15.48782271 7.76718879 33.26434858 20.41364809 69.10424518 35.04245306 106.62613135 45.45126595l5.61664223 1.55884394c8.98963371 2.41936139 17.67290695 4.47529282 26.9523848 5.29376003l-4.50533149-1.37862868c-10.86535265-3.4090317-20.89872124-6.63785092-30.03552931-13.63913463l-3.54419179-2.63411717c-17.16530487-13.38383106-32.88439964-29.19153095-46.48298651-46.17361832l-1.99285752-2.4508998c-4.6795368-6.06567515-7.22054139-12.13135025-9.5528001-19.32486078l-1.48976286-4.44075227A1000.34083227 1000.34083227 0 0 1 407.76688054 893.9777939l-0.97615353-3.28588596c-11.48859084-39.00113436-5.05497829-65.56606057 9.10076508-102.91223898 2.58005266-6.85410929 4.74561292-13.79832339 6.82857808-20.81912549 3.29189321-10.79777403 6.97575247-21.47390206 10.57701099-32.17105659h4.50532877l1.00619215 2.47642816c1.53181305 3.74693326 3.07864268 7.48635684 4.62546941 11.22728292l1.58437514 3.89560734c5.63166156 13.55503417 12.33709391 21.81480577 23.75810336 30.92608271l3.53218021 2.8789061c5.72326892 4.78766319 5.72326892 4.78766319 12.04875233 8.66675148l-0.75539332-2.6326147-3.46910343-12.10431657-1.18640463-4.1373941c-0.80645283-2.81432969-1.60389633-5.63166156-2.39533266-8.44899626a317.22325309 317.22325309 0 0 0-2.39383301-7.99695838c-3.59825634-11.91059007-4.93183541-23.9263043-6.22185891-36.25588856-0.37994894-3.6072685-0.78092446-7.20852706-1.18640463-10.81279059A863.26317955 863.26317955 0 0 1 464.83438774 692.73974296l-0.415992-4.11937254c-0.70883836-12.61191875 3.88059082-24.77180239 7.45632093-36.70942335 0.66078093-2.27368947 1.32156469-4.54737895 1.97934065-6.8210684A1316.12237993 1316.12237993 0 0 1 479.85215381 625.15980122l0.98666534-3.2198071c0.94612039-3.05611643 1.91326454-6.10472034 2.89092048-9.1518274l1.68198964-5.28775571c3.01706835-7.53291178 7.68158586-13.69770389 12.66748582-20.03820381l2.60558106-3.32793623 2.72722702-3.46459877a1481.9981006 1481.9981006 0 0 0 21.27116058-27.79487796c9.42064506-12.57287351 19.0905837-24.95952455 28.75601768-37.34467589z" fill="#F9EED9" p-id="7278"></path><path d="M343.19049031 15.43854536l7.50888304 1.50177435 0.6682906 3.92414354c2.2166227 12.06527133 5.19764803 23.57939339 9.01666741 35.23317736a696.90388822 696.90388822 0 0 1 6.92769506 22.47408707l1.6038964 5.52202991c1.04223243 3.60576603 2.07695797 7.21453422 3.1026713 10.82630746l1.45972691 5.02794732 1.27951168 4.47829787c2.91044172 8.22973571 2.91044172 8.22973571 9.54829547 13.41987409l4.24852538 1.20292363 4.78315855 1.40716488 5.13607653 1.4206817c3.55170144 1.03322303 7.10340287 2.06644327 10.65360182 3.1026685l5.41540604 1.55584176c7.71162171 2.26167514 15.34064826 4.76363442 22.97717893 7.26259167 10.35324581 3.35196496 20.5893559 6.2729213 31.27449607 8.38291453C472.34327077 143.08954582 472.34327077 143.08954582 476.84859949 146.09310018c-1.50177713 4.50532874-1.50177713 4.50532874-5.37936302 6.82257089-5.46646565 2.33075628-10.96296717 4.07882483-16.67872918 5.66169746-2.25867293 0.64426191-4.51734306 1.29152886-6.77451353 1.9402954l-3.55770858 1.02421085c-6.25039508 1.83216623-12.46023964 3.79498786-18.67008703 5.7638167l-3.47661318 1.09930198a933.78359887 933.78359887 0 0 0-17.04966878 5.58810884 155.38881447 155.38881447 0 0 1-11.55616948 3.41504171l-4.43024041 1.16087343-4.48730716 1.09178954c-6.26390915 3.82502371-7.68459083 9.25094446-10.06040229 15.99091734l-1.3020407 3.69136618a492.42800864 492.42800864 0 0 0-3.76645446 11.70184138l-1.35760495 4.31760938c-4.27105163 13.70070606-8.22523106 27.48851758-12.09680969 41.30636216a3165.44449764 3165.44449764 0 0 1-4.56690299 16.04347668l-1.44170539 5.05047646c-0.33039189 1.15186128-0.66078093 2.30372538-0.9986825 3.49012714h-6.00710586l-1.12182536-3.61627786a174045.22274161 174045.22274161 0 0 0-6.10922792-19.6957976c-5.96205347-19.25277468-5.96205347-19.25277468-12.03974294-38.47251124-1.42068169-4.55038391-2.64012439-9.13530558-3.83703808-13.75026601l-1.12483035-4.16142281c-0.72085273-2.68067215-1.41016701-5.37035366-2.05743399-8.07054695-1.72704207-6.29094283-2.50796654-9.08274352-8.20420457-12.61191874-2.00336933-0.62624039-4.02476027-1.20142117-6.05366072-1.74205861a2953.63394042 2953.63394042 0 0 1-8.1306187-2.69869365c-3.10867851-0.98216067-6.21735422-1.95981943-9.32753249-2.93297074-9.70147702-3.06062112-19.39994908-6.1227419-29.03234502-9.39811609l-4.21698707-1.43269601c-2.58455728-0.88304365-5.16611243-1.77209731-7.74466256-2.67315963a127.64199115 127.64199115 0 0 0-22.42752935-5.461961c-3.70938771-1.07377081-5.26372698-2.52148337-7.72513856-5.43793507 0.92659636-2.86839427 0.92659636-2.86839427 3.00355435-6.00710587 4.04728642-1.30804784 4.04728642-1.30804784 9.19837955-2.1595531 7.87681767-1.44170537 15.31811926-3.29189321 22.95465268-5.74880014l6.33149061-2.01989115 3.27387444-1.04673714a925.68752348 925.68752348 0 0 1 13.06545353-3.9797078c4.33412558-1.30804784 8.65173493-2.66265063 12.9678418-4.02476019 2.20460838-0.68480965 4.41221888-1.35159774 6.6258366-2.00186973 12.30705806-3.13420691 12.30705806-3.13420691 22.44855586-10.07691848 1.2434714-3.17625716 1.73605422-6.11823725 2.25116322-9.48972618a460.60536269 460.60536269 0 0 1 2.86839149-9.16834651L322.16562113 83.01848707c1.09028982-3.52917521 2.18358182-7.05985012 3.27987884-10.58752563l1.67447999-5.4003867 1.71052581-5.50701621 0.88604589-2.85938208c4.47529282-14.4140519 8.96110028-28.82359636 13.47393865-43.22563109z" fill="#F9B828" p-id="7279"></path><path d="M795.22521633 61.99361519c3.96469126 3.43756508 5.35983897 6.16929684 6.70543235 11.21076103l1.09629703 3.99322464 1.11431849 4.22449676c0.78092446 2.85637993 1.56635361 5.71125737 2.35328242 8.5661348l1.15036161 4.18545148c1.79912818 6.33749775 3.91963607 12.5428376 6.10622285 18.75718686C814.74831111 116.0575708 814.74831111 116.0575708 814.74831111 119.06112232c18.95692335 5.72927607 37.9258639 11.43452626 57.0675072 16.51954329l-1.50177716 7.50888021-5.16310752 0.93861072c-8.38591953 1.84418063-16.35134233 4.74561292-24.38885123 7.72213641-6.06417264 2.23013676-11.86853981 3.89260515-18.22255381 5.13607379-4.43174291 1.29753599-5.85092214 2.0183887-8.3138362 5.97857246-1.66096594 4.37617583-2.84286303 8.72532075-3.98270997 13.2636903-1.05424679 3.31892686-2.1175057 6.63635126-3.1912765 9.94926819-1.7420614 5.69924302-3.24984299 11.33240423-4.41221887 17.177322-1.00618938 4.92732793-2.35328245 8.19819739-5.91249355 11.91959943-5.81938375-2.8158322-5.81938375-2.8158322-7.50888306-4.50532871-0.42049671-2.0574339-0.78392666-4.12387718-1.1263329-6.19482805-1.86070242-9.74953164-4.97839031-19.10259805-8.43848156-28.39258771C778.70567587 173.125078 778.70567587 173.125078 778.17705001 169.67850075c-0.79143629-4.05780112-1.61290854-6.65587251-3.97670566-10.06941166-6.44862907-3.64030656-13.25167601-5.47547785-20.36859288-7.4157732l-5.63316407-1.69099901c-10.2571338-3.02457804-20.53228915-5.56558265-31.06574743-7.41277106 2.15504844-5.22618142 2.64312658-5.84641461 8.16065182-8.30031654 2.27819415-0.76140045 4.56540048-1.49576999 6.85711146-2.21211798l3.90762168-1.2855217a1247.46566517 1247.46566517 0 0 1 12.70503141-4.06530796l4.34463743-1.38163364c7.50287585-2.37581146 15.01325861-4.67052464 22.5942278-6.78352568l1.22544983-5.17361928c1.71352803-6.85110429 3.90161454-13.49196019 6.18882085-20.16885919 2.93597291-8.64422529 5.75630979-17.27793872 8.14263312-26.09336713C792.22166476 64.99716953 792.22166476 64.99716953 795.22521633 61.99361519z" fill="#EBA326" p-id="7280"></path><path d="M523.40367212 6.42788515c7.86780829 2.12050789 11.05908196 6.77901819 15.67554199 13.04743481 1.44470761 1.90274986 2.89092052 3.80550253 4.3401328 5.70674982l2.08596729 2.76176764c3.45859161 4.50983616 7.18299584 8.76286628 10.93743879 13.02490861l-1.50177436 3.0035515c-9.38910671-10.2331051-18.33068298-20.71700628-27.03197788-31.53730653 0 4.67502934 0.78392666 8.38591953 1.85919999 12.93029628 0.4054802 1.73154955 0.81096034 3.46309629 1.23145424 5.2457054l1.35009805 5.68872841 1.38163364 5.87945545c1.46423159 6.23087105 2.93597291 12.45873714 4.40921672 18.68810574 1.69099897 7.16347459 3.37899583 14.32844895 5.06399043 21.49492856 0.6682906 2.83835836 1.3410859 5.6737118 2.01238153 8.51056774 2.20160339 9.3515611 4.31009969 18.71964413 6.2503923 28.128272l1.11131637 5.36584894c2.62060035 15.857257 0.54514489 30.47855507-3.17625716 45.94234628-2.97802316 12.98436082-5.66920714 25.92967363-7.83477024 39.07622546-4.0593008 24.59909961-9.38760418 45.39119418-24.17109039 65.8604066l-2.25567078 3.13871434c-15.17244734 21.04589567-31.13783354 41.38896016-47.54023543 61.48423081a1223.59342545 1223.59342545 0 0 0-17.84711232 22.47108206c-4.38969266 5.62565444-8.965605 11.04106047-13.6406343 16.43394026C412.80834479 406.69637646 398.25913281 442.61886818 382.23667986 474.9821516c-6.00710586 0-6.00710586 0-8.28980466-1.75707794-15.36617669-18.46584302-23.40668778-42.03922923-25.76598026-65.66817976-0.61122384-5.87194583-1.33658119-11.72587007-2.06344106-17.58279936-1.11882321-9.12479373-2.22262989-18.25108998-3.27387166-27.38489587-0.22226273-1.92527883-0.4445254-3.85205746-0.6758003-5.83590279C341.68871594 351.83647982 341.68871594 351.83647982 341.68871594 345.82937396h-3.00355434l-1.05124458 3.04860672c-2.48694284 5.67971895-5.73678576 10.59203038-9.1683437 15.741621l-2.16255809 3.28138126a4487.53343575 4487.53343575 0 0 1-6.95322628 10.4974181l-4.78465814 7.24457009A8088.67783611 8088.67783611 0 0 1 291.37920322 420.54275443l-6.01311309 9.02567677c-1.67447999 2.50796654-3.35496992 5.01142839-5.03846206 7.5133877-3.05761611 4.55038391-6.09420853 9.11578439-9.12929843 13.68418707l-2.85637988 4.22299704c-10.22259324 15.47130083-16.00293172 31.74455271-20.65543202 49.60667875l-1.42819139 5.36284395a5486.57523232 5486.57523232 0 0 0-4.43774727 16.83491583c-0.98666815 3.71539487-1.97333348 7.43078974-2.96300665 11.14618463-2.36980429 8.92055257-4.70056052 17.8501145-7.02080489 26.78268138a1240.69715606 1240.69715606 0 0 1-3.6553231 13.55353446l-2.08296515 7.79121467-0.95362727 3.34596063c-4.51584057 17.24039315-1.77209731 34.52584154 1.18790432 51.80227773a3811.34204915 3811.34204915 0 0 0 3.67634964 22.08963055c1.44170537 8.55261798 2.85637993 17.10974058 4.26954916 25.66686043 0.49408527 2.97351845 0.99567751 5.94403194 1.49727248 8.91454537l0.91157707 5.45745627 0.8079581 4.79367036C238.06613611 712.26283777 238.06613611 712.26283777 238.06613611 718.26994366c-5.87044334-2.37881367-9.79758905-6.4065789-14.14973898-10.85333833l-2.29771533-2.30973251a2303.9624248 2303.9624248 0 0 1-7.20552488-7.29863189l-4.91080887-4.9513594A4763.37974302 4763.37974302 0 0 1 197.5181722 680.72553122c1.23145706 11.10413443 3.72891174 21.65561701 6.57027229 32.4443817 0.99417498 3.81150973 1.95381223 7.62902375 2.91494641 11.44804032C216.40000726 761.24027677 230.72845617 798.66304314 253.08390222 829.40140648c1.41166954 2.00336933 2.81883442 4.00974372 4.22299423 6.01912024a2023.80902285 2023.80902285 0 0 0 9.27497314 13.13453745 910.53009268 910.53009268 0 0 1 8.43547662 12.04875231c8.34386929 12.06076668 17.43262279 22.8375142 27.62518017 33.37397742l4.03076738 4.26504724c9.91322784 10.25863629 20.52928415 18.88484004 32.01186784 27.27225931l2.47342596 1.81714965A1546.10893891 1546.10893891 0 0 0 355.20470205 937.52931217l-3.00355153 1.5017772c-12.95131996-9.05571261-25.41456462-18.39676194-37.54441241-28.5337522l-4.21848953-3.20329085L307.14785505 904.49023131v-3.00355435l-4.50532867-1.50177716c-4.03677456-3.6613303-4.03677456-3.6613303-7.50888306-7.50888027v-3.0035543l-2.62210289-1.05124459c-4.23951605-2.44639511-6.48467216-5.32229621-9.48672117-9.18035805l-3.05611365-3.87758859c-2.70319834-3.70338058-5.01593302-7.48485433-7.3617086-11.42100947a462.60873484 462.60873484 0 0 0-5.53855176-7.60349535c-6.44712659-8.80040906-12.51129922-17.81106927-18.48987449-26.9373627a12930.89633938 12930.89633938 0 0 0-3.49613439-5.23219139c-5.877953-8.86498547-11.30837839-17.66689986-15.4682987-27.49001728a339.14919025 339.14919025 0 0 0-5.1991505-11.52162891c-7.45181627-15.9128241-13.57606066-31.77759079-18.45683089-48.65755899a694.43196475 694.43196475 0 0 0-2.6551409-8.87850234c-3.30090535-11.04556516-5.76531916-22.0836234-7.86780827-33.40401611-0.69081681-4.3476424-0.69081681-4.3476424-2.42236644-7.48485435-0.20123902-4.0127459-0.06457645-7.99395619 0-12.01421173 6.4981862 2.06344111 9.69696955 4.87777076 14.07915535 10.04238072 4.13739411 4.75762732 8.25977163 9.47921435 12.67048803 13.98604272l2.37731394 2.44038791c2.63561693 2.25867293 5.26222448 3.6448113 8.41745513 5.0684952 2.02739805-5.66770462 1.01970619-10.02285673-0.16519319-15.83923551l-1.17739525-5.95604628-0.63675223-3.14772378c-3.29339568-16.33181834-6.28793787-32.66664156-8.34537179-49.20720852-0.18021252-1.40566234-0.36042774-2.809825-0.54364239-4.25753484-1.82615907-15.46229151-1.24947859-28.68393161 2.60858598-43.79931216l1.2044234-4.87626829c3.57873233-14.23684161 7.60649757-28.3400229 11.71235606-42.43269511a706.34705947 706.34705947 0 0 0 8.38892166-31.44119171c2.12801758-8.66074431 4.30859719-17.28995308 6.94571658-25.81103264l1.48525819-4.88077578c3.41503888-8.62019657 9.34104928-16.06900784 14.56573099-23.6529792 1.99736215-2.97652067 3.99021966-5.95754597 5.97707001-8.94007384l3.0891545-4.62247a7820.0896158 7820.0896158 0 0 0 34.5784036-52.23478879l1.97033128-2.99754718 3.81901657-5.82388838c1.23145706-1.87872117 2.46741877-3.75594259 3.7033805-5.6316616a479.1237706 479.1237706 0 0 0 9.15633216-14.45159467l1.82916406-2.97051626a331.02908332 331.02908332 0 0 0 3.38800797-5.64217339c1.55584174-2.51697868 1.55584174-2.51697868 4.57440982-6.31496879h6.00710589l0.34240622 3.56371581A5693.3698565 5693.3698565 0 0 0 349.19759617 386.37733788l0.55866176 5.4063967c0.50759936 4.80118 1.04823956 9.59935504 1.59939167 14.39753002l0.44602787 4.25453266c1.2164377 10.14149778 4.09834882 19.04853349 7.90835608 28.50371909l2.01838588 5.18563363c4.87777076 12.14036245 4.87777076 12.14036245 11.49760303 23.34811855 3.85055491 1.07226832 3.85055491 1.07226832 7.50888025 1.5017772l3.66133308-7.3226606a10078.84256132 10078.84256132 0 0 1 3.23031895-6.45463627c2.77828665-5.54756109 5.54455893-11.09962975 8.27929564-16.66971984 4.93183541-10.01684959 9.94176129-19.8354651 15.85575454-29.32518853 1.89223797-3.10717605 3.54569427-6.26090695 5.20365795-9.49723588 8.7328304-15.84374294 20.96780237-30.00549345 32.73422026-43.67015646 5.73077857-6.6663871 11.15970148-13.53701263 16.5510788-20.47822454 4.44075226-5.69924302 9.0151649-11.25431378 13.69620138-16.75982749 6.82257093-8.11409972 12.97534868-16.5796122 19.05754567-25.24936872a382.75627279 382.75627279 0 0 1 8.16065182-11.16871082l2.08296514-2.78579629a383.65133359 383.65133359 0 0 1 4.70506519-6.11223005c14.05362414-18.70762979 18.59199378-39.59283419 22.30889108-62.15552359 0.86802708-5.05347861 1.75407575-10.10695721 2.64012165-15.15743079l0.6457644-3.70938771a388.69129536 388.69129536 0 0 1 7.25057724-32.79879949c4.40921667-17.57679221 1.88022365-34.23599741-1.99436002-51.67462733l-1.15036154-5.45595377c-2.38632333-11.12215591-5.18563365-22.09113307-8.16365683-33.06911956-2.64763125-9.90121353-4.94534945-19.88652468-7.24306757-29.87333848-0.82147222-3.56071077-1.66096594-7.11841941-2.49895436-10.67312581l-1.57686549-6.83458243-0.76140046-3.19878615c-1.11582102-4.93634006-1.63843693-7.55393547-0.00600711-12.45272998z" fill="#FBF2ED" p-id="7281"></path><path d="M343.19049031 15.43854536l7.50888304 1.50177435 0.6682906 3.92414354c2.2166227 12.06527133 5.19764803 23.57939339 9.01666741 35.23317736a696.90388822 696.90388822 0 0 1 6.92769506 22.47408707l1.6038964 5.52202991c1.04223243 3.60576603 2.07695797 7.21453422 3.1026713 10.82630746l1.45972691 5.02794732 1.27951168 4.47829787c2.91044172 8.22973571 2.91044172 8.22973571 9.54829547 13.41987409l4.24852538 1.20292363 4.78315855 1.40716488 5.13607653 1.4206817c3.55170144 1.03322303 7.10340287 2.06644327 10.65360182 3.1026685l5.41540604 1.55584176c7.71162171 2.26167514 15.34064826 4.76363442 22.97717893 7.26259167 10.35324581 3.35196496 20.5893559 6.2729213 31.27449607 8.38291453C472.34327077 143.08954582 472.34327077 143.08954582 476.84859949 146.09310018c-1.50177713 4.50532874-1.50177713 4.50532874-5.37936302 6.82257089-5.46646565 2.33075628-10.96296717 4.07882483-16.67872918 5.66169746-2.25867293 0.64426191-4.51734306 1.29152886-6.77451353 1.9402954l-3.55770858 1.02421085c-6.25039508 1.83216623-12.46023964 3.79498786-18.67008703 5.7638167l-3.47661318 1.09930198a933.78359887 933.78359887 0 0 0-17.04966878 5.58810884 155.38881447 155.38881447 0 0 1-11.55616948 3.41504171l-4.43024041 1.16087343-4.48730716 1.09178954c-6.26390915 3.82502371-7.68459083 9.25094446-10.06040229 15.99091734l-1.3020407 3.69136618a492.42800864 492.42800864 0 0 0-3.76645446 11.70184138l-1.35760495 4.31760938c-4.27105163 13.70070606-8.22523106 27.48851758-12.09680969 41.30636216a3165.44449764 3165.44449764 0 0 1-4.56690299 16.04347668l-1.44170539 5.05047646c-0.33039189 1.15186128-0.66078093 2.30372538-0.9986825 3.49012714h-6.00710586l-1.12182536-3.61627786a174045.22274161 174045.22274161 0 0 0-6.10922792-19.6957976c-5.96205347-19.25277468-5.96205347-19.25277468-12.03974294-38.47251124-1.42068169-4.55038391-2.64012439-9.13530558-3.83703808-13.75026601l-1.12483035-4.16142281c-0.72085273-2.68067215-1.41016701-5.37035366-2.05743399-8.07054695-1.72704207-6.29094283-2.50796654-9.08274352-8.20420457-12.61191874-2.00336933-0.62624039-4.02476027-1.20142117-6.05366072-1.74205861a2953.63394042 2953.63394042 0 0 1-8.1306187-2.69869365c-3.10867851-0.98216067-6.21735422-1.95981943-9.32753249-2.93297074-9.70147702-3.06062112-19.39994908-6.1227419-29.03234502-9.39811609l-4.21698707-1.43269601c-2.58455728-0.88304365-5.16611243-1.77209731-7.74466256-2.67315963a127.64199115 127.64199115 0 0 0-22.42752935-5.461961c-3.70938771-1.07377081-5.26372698-2.52148337-7.72513856-5.43793507 0.92659636-2.86839427 0.92659636-2.86839427 3.00355435-6.00710587 4.04728642-1.30804784 4.04728642-1.30804784 9.19837955-2.1595531 7.87681767-1.44170537 15.31811926-3.29189321 22.95465268-5.74880014l6.33149061-2.01989115 3.27387444-1.04673714a925.68752348 925.68752348 0 0 1 13.06545353-3.9797078c4.33412558-1.30804784 8.65173493-2.66265063 12.9678418-4.02476019 2.20460838-0.68480965 4.41221888-1.35159774 6.6258366-2.00186973 12.30705806-3.13420691 12.30705806-3.13420691 22.44855586-10.07691848 1.2434714-3.17625716 1.73605422-6.11823725 2.25116322-9.48972618a460.60536269 460.60536269 0 0 1 2.86839149-9.16834651L322.16562113 83.01848707c1.09028982-3.52917521 2.18358182-7.05985012 3.27987884-10.58752563l1.67447999-5.4003867 1.71052581-5.50701621 0.88604589-2.85938208c4.47529282-14.4140519 8.96110028-28.82359636 13.47393865-43.22563109z m1.50177718 4.50532867c-4.06380831 10.31119842-7.22054139 20.80861643-10.32471245 31.44419673l-1.60239667 5.44994658c-1.53481521 5.22167671-3.0636233 10.44485594-4.59243135 15.66803519l-3.22731955 11.00201245c-0.82597686 2.82033685-1.65195374 5.64067375-2.47492566 8.46251027l-0.86802711 2.73924141c-1.05124455 3.54869924-1.05124455 3.54869924-1.87121427 8.15164247-3.00355435 13.22464507-3.00355435 13.22464507-8.58865819 17.19684321-4.61646012 1.75707791-9.1187866 2.92395856-13.9439953 3.97820535-3.52917521 0.92209171-7.05534543 1.84718562-10.58302105 2.77378194l-5.49950368 1.35610527c-8.88150733 2.2706873-17.59931843 5.04296674-26.3426635 7.7897122l-9.28097753 2.83835837C236.46223978 141.58777146 227.4981345 144.57029933 218.54304135 147.59487733c4.74861792 5.27874352 10.13398811 6.51170303 16.80187492 8.35438117A8738069664.921898 8738069664.921898 0 0 1 247.99287807 159.60908909c9.01366241 2.65964564 17.97926735 5.47697749 26.94787738 8.28830222 4.15541561 1.30204067 8.31233373 2.59807417 12.47075432 3.89561014a1194.78334314 1194.78334314 0 0 1 8.61118436 2.75275549 136.71872745 136.71872745 0 0 0 9.38610454 2.57704757c8.27178599 2.04241742 8.27178599 2.04241742 10.99750771 6.14226597 1.37262427 3.44507475 2.28720634 6.80454935 3.13120469 10.41632252l2.14754163 7.8542915 1.01219654 3.94366476c1.32907155 5.05347861 2.92546101 9.98230902 4.53686706 14.95168717 2.43588043 7.69210054 4.72458923 15.42324348 6.97575247 23.17241065l1.62492003 5.57609739c1.07527331 3.69887585 2.14303412 7.40075387 3.20178836 11.10413435l1.49577005 5.14208377 1.33357621 4.63598407c1.10380666 3.8881005 1.10380666 3.8881005 4.32812123 6.68590839 4.58191948-8.12160659 6.80304688-16.55558352 9.19837956-25.5302007 4.70356274-17.23138378 9.75253661-34.33962189 14.93066337-51.43284066l1.67147782-5.52353519 1.48826036-4.90029701A200.66737483 200.66737483 0 0 0 376.22957401 179.13218388l5.53855172-1.12633286c9.33804711-2.08446481 18.38625006-4.99190437 27.50053198-7.88432736l6.43511227-2.02439588c4.75012042-1.49276498 9.49723583-2.99604467 14.24434849-4.50532868a1993.8636011 1993.8636011 0 0 1 16.97608302-5.29075785l9.08724818-2.8218394 4.40020731-1.33658119 4.0593008-1.26749732 3.6192801-1.11431854c3.04410204-0.93560575 3.04410204-0.93560575 4.25303289-4.16592747-10.4373463-3.96469126-20.89571905-7.56895482-31.65144284-10.56499945-2.59506917-0.72836238-5.18112901-1.47774845-7.7641839-2.24966076a254.71180646 254.71180646 0 0 0-24.046445-5.85692931c-27.19116661-5.96806065-27.19116661-5.96806065-34.20896646-15.53287228-4.90480169-10.04538294-7.36621331-20.61188212-9.4912287-31.54031154-1.24647358-6.24288543-3.07864268-12.20193389-5.00091373-18.26160183-0.57067615-1.95080723-1.13384257-3.90461952-1.6894993-5.85993146l-0.85150807-2.97952565L356.70647921 51.48118059a2968.00594209 2968.00594209 0 0 0-4.78766316-16.51954044l-1.1383472-4.00674152-1.0842827-3.6898637-0.95212472-3.29640061c-0.85601278-2.83685594-0.85601278-2.83685594-4.05179394-4.02476029z" fill="#FCF7ED" p-id="7282"></path><path d="M664.57066149 174.62685238c2.59807417 2.4403879 5.06098549 4.92432574 7.50888301 7.50888301l2.41785896 2.45240229c23.01772946 26.07985026 29.57898959 70.41229298 39.10626131 103.10746794 3.89260515 13.35680015 7.89784135 26.64752139 12.35211044 39.83011625l1.27350736 3.80550254c1.7165302 5.098531 3.47961534 10.15200962 5.39588195 15.17845448 3.44057008 9.54228829 4.40320955 18.02582226 4.30709469 28.0651981l-0.02252615 3.97069845c-0.13966473 12.99487271-0.96864659 25.91615679-2.01237875 38.86597426-0.30786286 3.80249753-0.59620452 7.60649757-0.88154391 11.41200006a1407.49196346 1407.49196346 0 0 1-1.54983459 18.60851277 1135.38808471 1135.38808471 0 0 0-0.59470204 6.86612082c-1.46122943 17.13827393-5.29676503 32.89190929-10.32771743 49.31083309a2223.35006751 2223.35006751 0 0 0-3.1056735 10.36225799c-0.63074507 2.12201039-1.27200479 4.23951605-1.92527888 6.35401677-2.08146266 6.93520476-3.14622126 13.56254384-3.88509551 20.73502781 5.36134144-2.50195935 9.44617346-4.73660361 13.51598893-9.01066027h3.00355433v-3.0035515c2.09948417-2.1175057 2.09948417-2.1175057 5.06849517-4.59994379l3.19277614-2.73773612a242.20200688 242.20200688 0 0 1 7.44280414-6.05216113c10.46137499-8.5631298 14.87809854-16.62917215 19.1176146-29.31767883l3.72590672-10.38778918 1.78561413-5.1240622c2.41035199-6.81656375 5.05347861-13.53100544 7.72363611-20.24845216 2.17607497-5.52053022 4.31610685-10.95996498 5.91249353-16.68473639C784.71278175 429.92885612 784.71278175 429.92885612 787.90405542 427.86541784L790.71988759 426.92530463a504.03523774 504.03523774 0 0 1 3.09666139 7.13343872l1.7420614 4.0127459C796.7269935 441.9430707 796.7269935 441.9430707 795.22521633 447.95017659l-6.00710589-16.51954326c-6.00710586 14.18277699-11.54115295 28.50972628-16.92952529 42.93578973-7.86180112 21.02036447-13.87941884 35.55756207-31.12732168 50.17435267-3.47511065 2.96901098-6.94721909 5.94252944-10.41932476 8.9175504l-2.74224639 2.3442731A1167.00798928 1167.00798928 0 0 0 706.62040258 554.57630792c-2.53049274-6.16028747-0.34991309-11.60723189 1.42668889-17.68041669l0.9716488-3.46009133c1.03322303-3.65682561 2.08596734-7.30914656 3.13871158-10.95996499 0.68180748-2.39833764 1.36060991-4.79817503 2.03941521-7.19801515 2.53349772-8.94007658 5.0729998-17.8771482 7.72363609-26.7841839 2.68067215-9.09776289 4.98289494-17.67140453 5.81788122-27.1220827l0.31086785-3.39401516c0.24028423-2.68367433 0.46555193-5.36584615 0.68631212-8.04952324 0.4054802-4.90630417 0.83799125-9.80960341 1.27650951-14.71290263 0.42950885-4.8537421 0.84700061-9.70898385 1.26149293-14.5642285 0.20574369-2.40734703 0.41448955-4.81619655 0.62624045-7.22354641a770.86187545 770.86187545 0 0 0 1.53631764-20.76055904c0.20273871-3.08765197 0.48507316-6.1707993 0.77341481-9.25094158 1.19991867-21.34024449-6.17830897-40.53745207-12.75909312-60.58166589-1.24196893-3.8565621-2.47492847-7.71612641-3.7063855-11.57569073a4794.4229642 4794.4229642 0 0 0-6.58679142-20.44969116 2288.31391365 2288.31391365 0 0 1-10.64308991-33.77195074c-1.37863146-4.45276661-2.76026512-8.90553324-4.14189873-13.35830266-0.85150811-2.75425794-1.69850865-5.51152091-2.53950495-8.27028349-6.24739009-20.42866466-13.34028113-38.63920689-27.332331-55.21431439C664.57066149 177.63040671 664.57066149 177.63040671 664.57066149 174.62685238z" fill="#FAF1ED" p-id="7283"></path><path d="M795.22521633 61.99361519c3.96469126 3.43756508 5.35983897 6.16929684 6.70543235 11.21076103l1.09629703 3.99322464 1.11431849 4.22449676c0.78092446 2.85637993 1.56635361 5.71125737 2.35328242 8.5661348l1.15036161 4.18545148c1.79912818 6.33749775 3.91963607 12.5428376 6.10622285 18.75718686C814.74831111 116.0575708 814.74831111 116.0575708 814.74831111 119.06112232c18.95692335 5.72927607 37.9258639 11.43452626 57.0675072 16.51954329l-1.50177716 7.50888021-5.16310752 0.93861072c-8.38591953 1.84418063-16.35134233 4.74561292-24.38885123 7.72213641-6.06417264 2.23013676-11.86853981 3.89260515-18.22255381 5.13607379-4.43174291 1.29753599-5.85092214 2.0183887-8.3138362 5.97857246-1.66096594 4.37617583-2.84286303 8.72532075-3.98270997 13.2636903-1.05424679 3.31892686-2.1175057 6.63635126-3.1912765 9.94926819-1.7420614 5.69924302-3.24984299 11.33240423-4.41221887 17.177322-1.00618938 4.92732793-2.35328245 8.19819739-5.91249355 11.91959943-5.81938375-2.8158322-5.81938375-2.8158322-7.50888306-4.50532871-0.42049671-2.0574339-0.78392666-4.12387718-1.1263329-6.19482805-1.86070242-9.74953164-4.97839031-19.10259805-8.43848156-28.39258771C778.70567587 173.125078 778.70567587 173.125078 778.17705001 169.67850075c-0.79143629-4.05780112-1.61290854-6.65587251-3.97670566-10.06941166-6.44862907-3.64030656-13.25167601-5.47547785-20.36859288-7.4157732l-5.63316407-1.69099901c-10.2571338-3.02457804-20.53228915-5.56558265-31.06574743-7.41277106 2.15504844-5.22618142 2.64312658-5.84641461 8.16065182-8.30031654 2.27819415-0.76140045 4.56540048-1.49576999 6.85711146-2.21211798l3.90762168-1.2855217a1247.46566517 1247.46566517 0 0 1 12.70503141-4.06530796l4.34463743-1.38163364c7.50287585-2.37581146 15.01325861-4.67052464 22.5942278-6.78352568l1.22544983-5.17361928c1.71352803-6.85110429 3.90161454-13.49196019 6.18882085-20.16885919 2.93597291-8.64422529 5.75630979-17.27793872 8.14263312-26.09336713C792.22166476 64.99716953 792.22166476 64.99716953 795.22521633 61.99361519z m0 3.00355434c-1.32456688 3.94066257-2.64462905 7.88282484-3.9601838 11.82648956a973.82096128 973.82096128 0 0 1-3.41353919 9.97930403c-3.56371577 10.08442819-3.56371577 10.08442819-5.50851588 20.55481532-0.75389078 5.88245767-1.29152886 8.62620374-5.13907874 13.20512108-9.79008219 5.20215269-20.60437246 7.91436321-31.27299362 10.70766638-7.70411203 2.11149851-15.24152847 4.70807023-22.79095924 7.31365122v3.00355434l3.5081487 1.03172057c5.30727692 1.56184894 10.61455658 3.12819972 15.92183343 4.69305082l5.51602556 1.62191792c3.57422764 1.05725174 7.1454531 2.13252222 10.7076664 3.23032172 4.73660361 1.46423159 4.73660361 1.46423159 9.02868175 2.28720632 3.63880409 0.83348654 6.27141884 1.58737732 9.38159702 3.65532312 3.01706835 4.91381383 4.33713056 10.01684959 5.72627388 15.58092968l1.27050227 4.49181469a589.4232466 589.4232466 0 0 1 2.4298761 8.87850234c1.41166954 5.31028188 2.96450629 10.56199446 4.55789075 15.81971427l1.29753319 4.53536457c0.91608452 3.51866337 0.91608452 3.51866337 4.24101859 4.75762725l1.19240897-3.9932218a35880.4996049 35880.4996049 0 0 1 6.32248122-21.13149865c0.91608452-3.0636233 1.83216623-6.1287491 2.75125295-9.19387487l1.66697313-5.57609729L810.24298242 167.11796929l1.13834446-4.94684908C813.24653397 158.10731193 813.24653397 158.10731193 817.2562776 155.91471797l5.06098832-1.48675783 5.55356828-1.69700905c1.94630257-0.55565677 3.89110269-1.11131355 5.83740527-1.66396808 3.77396412-1.12933511 7.54792831-2.26167514 11.3233949-3.39551489l5.37936302-1.58587761c5.75030261-1.75858042 11.31288308-3.784476 16.8994922-5.99959624-3.92714574-3.92714574-7.48184935-4.74411325-12.7651003-6.47716244l-2.96000166-0.97765599a330.87139702 330.87139702 0 0 0-17.20285037-5.0579833l-3.70187805-0.98666812a528.58627996 528.58627996 0 0 0-7.19801517-1.83667094c-8.40694607-2.19409651-8.40694607-2.19409651-11.73788724-7.19050833a155.69817985 155.69817985 0 0 1-2.43437798-8.12460873l-1.34709307-4.883778-1.38163647-5.10604068c-0.90256765-3.30390754-1.80813754-6.60781783-2.71520985-9.90872042l-1.32456685-4.83572055c-1.84268089-6.59580351-3.8085047-13.15556114-5.81487908-19.70330724h-1.50177717z" fill="#FCF8F0" p-id="7284"></path><path d="M796.7269935 447.95017659c5.05347861 5.6842237 7.11091254 12.30555562 9.66843616 19.33536983 4.65250309 12.51580393 9.51525457 24.93399615 14.51917612 37.31314033 7.08387887 17.53023728 13.88242102 35.1265535 20.28749738 52.91809878 2.75125573 7.57796415 5.65719278 14.89011287 9.17285117 22.14970232 3.38200082 7.33317525 4.65250309 13.44390281 4.92132073 21.46488987l0.2357795 4.5533861c0.53012835 11.12516091 0.80645283 22.25933119 1.09629706 33.39350151 0.15318159 5.07150015 0.38295397 10.13398811 0.63375003 15.20248605 0.81246004 21.11047205-2.988535 38.75634545-9.7435245 58.71495345-2.50496433 7.66356432-4.74561292 15.15442581-4.23651384 23.29555644l4.7861635-2.53499746 2.69268364-1.42518637c4.0307674-2.71971738 7.13794343-6.08970382 10.54247327-9.55580232a354.75865333 354.75865333 0 0 1 8.25976881-7.13343872l4.17644213-3.54419175c4.07582262-2.83385094 6.71294204-3.81000717 11.59221253-4.34013559-0.98216067 7.61400724-4.28757068 14.14673396-7.50888305 21.02487197-1.97033133-5.91249353-0.36493244-9.19838235 1.5017772-15.01776611-11.70484639 9.07223166-23.27603522 18.22856381-34.40570086 28.00212414C839.09511209 746.80369858 839.09511209 746.80369858 835.77318307 746.80369858c0.81696753-8.10659006 2.27969663-15.13940928 4.93333505-22.89007901 9.38910671-28.58631427 13.57455817-53.86872385 11.97216151-83.92827907a204.8303001 204.8303001 0 0 1-0.09310981-18.90286162c0.71634801-25.5437175-7.14845529-46.29976903-16.88597538-69.40460115-5.41840825-12.86421731-10.42533193-25.88311873-15.45778398-38.90201731a4427.15150916 4427.15150916 0 0 0-5.97707277-15.32262678c-0.94311542-2.41185172-1.88773329-4.82520871-2.82934626-7.23856288-2.39683517-6.14376843-4.81018937-12.28002718-7.24757235-18.40577132l-1.48675777-3.7574451a1423.98447298 1423.98447298 0 0 0-2.81883719-7.07937416c-1.79462349-4.55488861-3.15523343-8.07955634-3.15523062-13.02190359z" fill="#FAF2EE" p-id="7285"></path><path d="M355.20470205 939.03108937c5.58510667 1.97934062 10.44785813 4.67052464 15.48782271 7.76718879C418.85299341 976.35323908 472.47843085 993.80087837 527.90900075 1003.6074796v1.50177715c-16.60664313-0.30185569-31.65294257-3.70938771-47.59429997-8.06604227-2.97652067-0.81096034-5.96205347-1.58587484-8.9505885-2.35328525C450.54198181 989.14537027 430.37312266 980.95768478 410.7704349 972.07017306l-2.96450909-1.30804783c-13.5385151-5.97706997-26.45979921-12.70953321-39.17984716-20.27999053l-4.03677463-2.38482089-3.71238984-2.24966073-3.31892691-2.00787405L355.20470205 942.03464369v-3.00355432z" fill="#FBF4F0" p-id="7286"></path><path d="M853.79450067 652.19177903h1.50177439c3.10867851 22.16171669-0.71634801 39.59734169-7.75367196 60.68378506-2.48994503 7.71162171-4.77264662 15.22951411-4.26053979 23.41569718l4.78766595-2.53499746 2.69118119-1.42518637c4.0307674-2.71971738 7.13794343-6.08970382 10.54247327-9.55580232a354.75865333 354.75865333 0 0 1 8.25976881-7.13343872l4.17644213-3.54419175c4.07582262-2.83385094 6.71294204-3.81000717 11.59221253-4.34013559-0.98216067 7.61400724-4.28757068 14.14673396-7.50888305 21.02487197-1.97033133-5.91249353-0.36493244-9.19838235 1.5017772-15.01776611-11.70484639 9.07223166-23.27603522 18.22856381-34.40570086 28.00212414C839.09511209 746.80369858 839.09511209 746.80369858 835.77318307 746.80369858c0.84099622-8.21621894 2.37280645-15.74913059 4.88077297-23.62895327 0.67580027-2.20460838 1.34859561-4.40771418 2.01838591-6.61231973l1.05124455-3.43456286c6.194828-20.39712911 10.97948898-39.41862885 10.07091417-60.93608369z" fill="#F8EAE4" p-id="7287"></path><path d="M413.77398642 960.05596131l3.60726851 2.04691927c12.455735 6.91868574 25.2178303 12.95131996 38.25475045 18.69711792l4.81019215 2.12801752c8.8604808 3.86256928 17.69242825 7.26859879 26.91483648 10.16702619-4.62396974 1.47624592-7.42478258 1.49426749-12.05475946 0.09911979l-3.55921114-1.05875424-3.81451183-1.19991868-3.98421254-1.22544986c-20.68096323-6.50269088-41.18171398-14.14673396-60.68678722-23.64697204v-1.50177717h10.5124346v-4.5053287z" fill="#C95212" p-id="7288"></path><path d="M670.57776736 955.55062982l3.00355435 1.50177718-2.90443733 2.19259397c-1.2404664 0.95062509-2.48093562 1.89824522-3.76044729 2.87590114l-3.74843576 2.85037278c-3.23032171 2.35028025-3.23032171 2.35028025-4.60444571 5.59712099l6.00710587 1.50177718c-17.70594506 6.92168785-35.42240204 13.65715614-53.68850854 18.95992834l-3.97520315 1.18039463-3.69737337 1.03622807-3.21380266 0.90857486c-3.41654135 0.50159216-5.74729757-0.01651902-9.01215992-1.06025675l2.89842732-1.11581821c18.18350854-7.04333109 36.18229998-14.3419658 53.7936356-22.72488314l4.3536496-2.05442894c6.82106839-3.30090535 12.8732295-6.52371742 18.54844099-11.6492821z" fill="#D45304" p-id="7289"></path><path d="M556.44275299 43.97229753c5.40939885 1.80213316 6.52221488 3.60126133 9.94927092 8.07204949l3.20328807 4.11186286L572.96229622 60.49184081c7.28361534 9.07523667 14.72792195 17.94622929 22.50862477 26.59646177 3.19878334 3.6418091 6.26090695 7.36921829 9.31101345 11.13567277 5.4739753 6.74748263 11.09662756 13.34478577 16.8003752 19.89853628l5.04596893 5.80736938c2.37280645 2.73323424 4.74561292 5.46346346 7.12442658 8.19069049 11.00802237 12.66297836 21.05941249 25.85608507 30.81795634 39.50272933l-1.50177718 3.00355155c-5.39588202-6.70993706-10.78275467-13.42287908-16.06900786-20.22141847-6.94571657-8.93106444-13.95150496-17.67590918-21.5640097-26.05732403-3.17926212-3.57723261-6.19332551-7.25658444-9.20438666-10.97648685-5.52803987-6.81806623-11.21827072-13.47093648-16.98809743-20.0862584a812.91311903 812.91311903 0 0 1-19.7633762-23.51782192 492.32138202 492.32138202 0 0 0-8.29581474-9.79758908l-2.49745459-2.87890615a1143.08018245 1143.08018245 0 0 0-4.89128485-5.58360418c-3.32643374-3.82352405-5.73228106-6.67539649-7.35269929-11.53514577z" fill="#FAF0EB" p-id="7290"></path><path d="M463.33261055 975.0737246c4.21848955 1.94780509 7.46382782 4.12387718 10.98249117 7.13343874 11.44353565 8.77638317 26.31112513 13.13904213 40.07791018 16.89498474v1.50177717c-24.9234815-1.7420614-24.9234815-1.7420614-31.36159879-6.66938929-3.65382345-2.691184-7.05835049-3.97069846-11.34592112-5.43793231-5.34632493-1.85169027-10.62356596-3.77546665-15.86176449-5.91399603l4.50533154-1.50177716c1.81564721-3.00355435 1.81564721-3.00355435 3.00355151-6.00710586z" fill="#F2A42F" p-id="7291"></path><path d="M861.30338372 144.59132302c-4.69155116 1.66396813-9.38610174 3.31892686-14.07915536 4.97538529l-3.96018665 1.40416266-3.95868121 1.39364801-3.9962269 1.41166954c-4.07582262 1.33808377-8.17266899 2.39833764-12.32507954 3.46910348-5.49049437 1.57236077-5.49049437 1.57236077-9.30350655 5.73077857l-0.99718001 3.95417941-1.23746426 4.4122189L810.24298242 176.1286295c-1.0842826 3.44507475-2.17907715 6.88714734-3.28588885 10.32471246-1.70902049 5.54455893-3.18076185 10.99901021-4.22299422 16.70726542l-4.50532866 1.50177436c1.37412678-6.04164647 2.9164489-12.03373573 4.50532866-18.02131762l0.9280989-3.58173732c1.02120871-3.85806459 2.10398887-7.6936002 3.20178552-11.53063828l0.98066092-3.7904832c1.83967594-6.21134704 2.72422205-8.91604789 8.40994828-12.37013481A164.71484719 164.71484719 0 0 1 822.25719418 153.60198324a2634.65661437 2634.65661437 0 0 0 8.04201354-2.79330602c2.91795132-0.95062509 5.83740525-1.89824522 8.75835887-2.83835556l4.47980026-1.49576996 4.31460441-1.39064586 3.89560735-1.2720048c3.784476-0.77041259 5.94102693-0.46705162 9.55580511 0.77942198z" fill="#FAF4E9" p-id="7292"></path><path d="M810.24298242 114.55579366l4.50532869 1.50177714v3.00355152c18.95692335 5.72927607 37.9258639 11.43452626 57.0675072 16.51954329l-1.50177716 7.50888021h-9.01065743l4.50532866-3.00355155c-7.84227708-3.10417107-15.78967838-5.75030261-23.84070131-8.25977161l-3.16574527-0.9911728a385.72378407 385.72378407 0 0 0-21.17354891-5.96055095c-3.76495477-1.70902049-5.25771979-3.81901658-7.38573447-7.31515376v-3.00355149z" fill="#FAF3E6" p-id="7293"></path><path d="M664.57066149 808.37653453c4.03377239 4.03377239 4.81769906 8.42796972 6.194828 13.79832336l0.82597689 2.85938213c4.68103648 18.13995866 1.83967594 38.34035342 0.48807812 56.83472982l-0.43551604 6.20384018c-0.34691092 4.9723831-0.7028312 9.94476343-1.0662611 14.91564409h-1.50177719c-0.29434881-4.72308671-0.57067615-9.44767595-0.84549806-14.17376765l-0.25530361-4.084832-0.21926054-3.88659799-0.21475302-3.59825635C667.57421302 874.45469916 667.57421302 874.45469916 669.07599017 872.95292476c0.23878176-3.21980989 0.37694679-6.44712659 0.47456134-9.67294367l0.1907271-5.93952442 0.18021249-6.25640225 0.19523179-6.27442105c0.16069122-5.13607658 0.31387004-10.27215035 0.46104447-15.40822689h-3.00355434c-0.50759936-2.37581146-1.00618938-4.75462512-1.50177439-7.1334387l-0.84550089-4.01274872C664.57066149 814.38364041 664.57066149 814.38364041 664.57066149 808.37653453z" fill="#FCE2A9" p-id="7294"></path><path d="M344.69226749 19.94387403c3.00355435 1.50177713 3.00355435 1.50177713 4.33562804 4.72308672l1.20142122 4.00523904 1.23896672 3.97219812c0.75239107 3.92264108 0.52562089 6.09721354-0.76891012 9.82612246-3.00355435-10.13699028-3.00355435-10.13699028-3.00355153-13.51598615-3.26636479 1.26449511-3.26636479 1.26449511-4.59994102 4.59994106-1.41317202 4.43024042-1.90125018 8.62470126-2.39833767 13.23365444-1.24647358 7.78671002-3.6327969 14.364492-9.5212646 19.71081695a464.4333914 464.4333914 0 0 1 8.4474938-33.414528l0.99117282-3.41654135c2.38782582-8.03450391 2.38782582-8.03450391 4.07732234-9.72400329z" fill="#EEBF58" p-id="7295"></path><path d="M801.23232221 868.44759325c0 8.33786213-7.87531516 13.85989483-13.51598894 19.52309475-11.6748105 11.39247605-23.58389806 22.5086248-36.0426352 33.03908374l-3.00355154-1.50177717a24760.7877686 24760.7877686 0 0 1 13.1195181-12.26500782c4.93483761-4.61045289 9.88168954-9.20588922 14.88110354-13.7457613 8.71330641-7.92487507 17.13526897-15.86777166 24.56155404-25.0496322z" fill="#F9F0EC" p-id="7296"></path><path d="M780.20745023 449.45195096h1.50177719c0.36342996 6.70993706-0.44152323 10.92091971-3.47360819 16.89498756-3.17625716 6.58528885-5.44243695 12.96483683-7.40375885 19.99314855-1.85018777 5.95604627-4.46778595 11.55016227-7.1439506 17.17581952h-3.00355151c3.36397931-12.12384059 7.71913142-23.76861523 12.29654623-35.47947163l2.10849351-5.43793223c1.70001116-4.38518798 3.40753202-8.7658685 5.11805222-13.14655177z" fill="#C45C2A" p-id="7297"></path><path d="M439.30418707 979.57905605a150.15362093 150.15362093 0 0 1 7.50888305 0l1.50177715 1.50177441c2.02739805 0.38145148 4.06230578 0.71634801 6.10171536 1.03322304 11.45855498 2.15054377 22.1391905 6.71744675 32.94447138 10.98098871-4.90780669 1.62492286-7.83476742 1.35760492-12.7410716-0.16519316l-3.88359298-1.18339963-4.02476022-1.27951444-3.95417944-1.20893088A362.00172372 362.00172372 0 0 1 439.30418707 981.08083046v-1.50177441z" fill="#C7672A" p-id="7298"></path><path d="M337.18338441 342.8258196l6.0071059 1.50177718v7.50888304l-1.50177437-6.00710586h-3.00355434l-1.21643772 3.29790034c-1.77960416 4.19446086-3.84905243 7.71312419-6.35251423 11.51412201l-2.63862195 4.03376962-2.74524857 4.15091095-2.78128882 4.23801357A3626.61002464 3626.61002464 0 0 1 316.15851527 383.37378635l-1.50177716-4.50532872a117.61162753 117.61162753 0 0 1 6.10171824-9.8561611c1.25248076-1.88172612 2.50346185-3.76345228 3.75444006-5.64818059l1.88172615-2.81883438c3.80249753-5.77883599 7.28511785-11.75590597 10.78876185-17.71946196z" fill="#F9ECE6" p-id="7299"></path><path d="M523.40367212 6.42788515c7.86780829 2.12050789 11.05908196 6.77901819 15.67554199 13.04743481 1.44470761 1.90274986 2.89092052 3.80550253 4.3401328 5.70674982l2.08596729 2.76176764c3.45859161 4.50983616 7.18299584 8.76286628 10.93743879 13.02490861l-1.50177436 3.0035515a592.50939612 592.50939612 0 0 1-24.4038706-28.3054823c-2.3607921-3.01556588-2.3607921-3.01556588-4.12988441-4.73360141l-3.0035515 6.00710589a193.16449899 193.16449899 0 0 1-1.50177724-9.01065743l1.50177724-1.50177713z" fill="#FCF2EE" p-id="7300"></path><path d="M602.99782557 987.08793634l-4.50532868 1.50177715v3.00355435c-4.72008453 4.49031215-9.50324306 5.72477142-15.76865469 7.13343876l-5.11504999 1.19691371c-4.40470918 0.64576441-6.51320558 0.39046081-10.65360184-0.82147223 5.43642977-2.30222286 10.88337418-4.58041701 16.33181827-6.85260397l4.69905806-1.99135784 4.48731-1.86220208 4.14640342-1.73905641C599.99427123 985.58616192 599.99427123 985.58616192 602.99782557 987.08793634z" fill="#EAA84B" p-id="7301"></path><path d="M401.75977468 829.40140648h1.50177714v42.0497411c-3.08164483-6.16479214-3.75894759-10.9389413-4.12988721-17.6458733l-0.195229-3.24383855c-0.36042774-7.71913142 0.25680329-13.91395942 2.82333907-21.16002925z" fill="#FCE4B1" p-id="7302"></path><path d="M524.90544644 12.434991c2.86388675 4.29658284 3.79048316 6.82407339 4.94084478 11.73788449 0.32738684 1.39665298 0.65627627 2.79030095 0.99567747 4.22750171l1.00919438 4.40320951 1.04373492 4.41972854C535.41788387 48.02709365 535.41788387 48.02709365 535.41788387 51.48118059l-4.5053315-1.50177715c-1.22394739-3.13120471-1.22394739-3.13120471-2.13552448-6.5625" fill="#F9E9E2" p-id="7303"></path></svg>